<svg xmlns="http://www.w3.org/2000/svg" xml:space="preserve" id="facebook" width="140" height="140" x="0" y="0" version="1.1">
  <circle cx="70" cy="73.629" r="58.977" fill="#fff"></circle>
  <path fill="#c7d5e0" d="M70.001 11.361c-32.413 0-58.697 26.282-58.697 58.696 0 29.472 21.729 53.864 50.036 58.056V90.464H48.055V75.077H61.34V63.729c0-13.17 8.04-20.338 19.788-20.338 5.628 0 10.46.419 11.876.607v13.76l-8.147.004c-6.388 0-7.627 3.039-7.627 7.49v9.824h15.236L90.48 90.463H77.23v37.83c29.003-3.565 51.467-28.271 51.467-58.236-.001-32.413-26.28-58.696-58.696-58.696z"></path>
  <circle cx="70" cy="73.629" r="58.977" fill="none" stroke="#33363a" stroke-width="3" stroke-linecap="round" stroke-linejoin="round" stroke-miterlimit="10"></circle>
  <path fill="#2463ff" d="M70.001 7.395c-32.413 0-58.697 26.282-58.697 58.696 0 29.472 21.729 53.864 50.036 58.056v-37.65H48.055V71.11H61.34V59.763c0-13.17 8.04-20.338 19.788-20.338 5.628 0 10.46.419 11.876.607v13.76l-8.147.004c-6.388 0-7.627 3.039-7.627 7.49v9.824h15.236L90.48 86.497H77.23v37.83c29.003-3.565 51.467-28.271 51.467-58.236-.001-32.414-26.28-58.696-58.696-58.696z"></path>
  <path fill="#129aff" d="M70 7.395c-32.412 0-58.696 26.282-58.696 58.696 0 29.472 21.729 53.864 50.036 58.056v-37.65H48.055V71.11H61.34V59.763c0-8.381 3.265-14.319 8.66-17.538V7.395z"></path>
  <path d="M70.001 7.395c-32.413 0-58.697 26.282-58.697 58.696 0 29.472 21.729 53.864 50.036 58.056v-37.65H48.055V71.11H61.34V59.763c0-13.17 8.04-20.338 19.788-20.338 5.628 0 10.46.419 11.876.607v13.76l-8.147.004c-6.388 0-7.627 3.039-7.627 7.49v9.824h15.236L90.48 86.497H77.23v37.83c29.003-3.565 51.467-28.271 51.467-58.236-.001-32.414-26.28-58.696-58.696-58.696zM56.343 35.943l-1.477-1.473M51.662 31.263l.067.07M47.272 49.72l-2.084.001M40.652 49.721h.099M70.118 26.876v-2.088M70.118 20.255v.097" fill="none" stroke="#33363a" stroke-width="3" stroke-linecap="round" stroke-linejoin="round" stroke-miterlimit="10"></path>
</svg>
